<svg xmlns="http://www.w3.org/2000/svg" version="1.1" xmlns:xlink="http://www.w3.org/1999/xlink" width="512" height="512" x="0" y="0" viewBox="0 0 66 66" style="enable-background:new 0 0 512 512" xml:space="preserve" class=""><g><path d="M12.2 39.2h16.2v4.3c0 .6.4 1 1 1h3.4c.1.4.3.7.4 1.1L30.8 48c-.2.2-.3.4-.3.7s.1.5.3.7l5 5c.4.4 1 .4 1.4 0l2.4-2.4c.3.2.7.3 1.1.4v3.4c0 .6.4 1 1 1h7c.6 0 1-.4 1-1v-3.4c.4-.1.7-.3 1.1-.4l2.4 2.4c.4.4 1 .4 1.4 0l5-5c.2-.2.3-.4.3-.7s-.1-.5-.3-.7l-2.4-2.4c.2-.4.3-.7.4-1.1H61c.6 0 1-.4 1-1v-7c0-.5-.4-1-1-1 .2-.6.3-1.2.3-1.9v-27c0-3.1-2.5-5.6-5.6-5.6H12.2C9.1 1 6.6 3.5 6.6 6.6v27.1c0 3 2.5 5.5 5.6 5.5zm47.7 3.3h-3.1c-.4 0-.8.3-1 .7-.2.7-.5 1.4-.9 2.1-.2.4-.1.9.2 1.2l2.2 2.2-3.6 3.6-2.1-2.3c-.3-.3-.8-.4-1.2-.2-.7.4-1.4.6-2.1.8-.4.1-.7.5-.7 1v3.1h-5v-3.1c0-.4-.3-.8-.7-1-.7-.2-1.4-.5-2.1-.9-.4-.2-.9-.1-1.2.2l-2.2 2.2-3.6-3.6 2.2-2.2c.3-.3.4-.8.2-1.2-.4-.6-.6-1.3-.9-2.1-.1-.4-.5-.7-1-.7h-3.1v-5h3.1c.4 0 .8-.3 1-.7.2-.7.5-1.4.9-2.1.2-.4.1-.9-.2-1.2l-.9-.9-1.2-1.2 3.6-3.6 2.2 2.2c.3.3.8.4 1.2.2.7-.4 1.4-.6 2.1-.9.4-.1.7-.5.7-1V25h5v3.1c0 .4.3.8.7 1 .7.2 1.4.5 2.1.9.4.2.9.1 1.2-.2l2.2-2.2 3.6 3.6-2.2 2.2c-.3.3-.4.8-.2 1.2.4.7.7 1.4.9 2.1.1.4.5.7 1 .7h3.1v5.1zm-5.1-16.6-.3-.3c-.4-.4-1-.4-1.4 0L50.7 28c-.4-.2-.7-.3-1.1-.4v-3.4c0-.6-.4-1-1-1h-7c-.6 0-1 .4-1 1v3.4c-.4.1-.7.3-1.1.4l-2.4-2.4c-.2-.2-.4-.3-.7-.3s-.5.1-.7.3l-5 5c-.2.2-.3.4-.3.7s.1.5.3.7l.2.2H13.1V11.9h41.7zm4.5 7.7c0 .7-.2 1.3-.5 1.8h-1.2c-.1-.4-.3-.7-.4-1.1l2.2-2.2v1.5zM8.6 6.6c0-2 1.6-3.6 3.6-3.6h43.5c2 0 3.6 1.6 3.6 3.6v23.8l-2.5-2.5v-17c0-.6-.4-1-1-1H12.1c-.6 0-1 .4-1 1v22.4c0 .6.4 1 1 1H33l.1.1c-.2.3-.3.7-.4 1.1h-3.4c-.6 0-1 .4-1 1v.7H12.2c-2 0-3.6-1.6-3.6-3.6z" fill="#000000" opacity="1" data-original="#000000" class=""></path><path d="M16 7.7c.6 0 1-.4 1-1s-.5-1-1-1c-.6 0-1 .4-1 1 0 .5.5 1 1 1zM20.9 7.6c.6 0 1-.4 1-1s-.5-1-1-1c-.6 0-1 .4-1 1s.5 1 1 1zM25.9 7.6c.6 0 1-.4 1-1s-.5-1-1-1c-.6 0-1 .4-1 1s.4 1 1 1zM16 17.1h11.8c.6 0 1-.4 1-1s-.4-1-1-1H16c-.6 0-1 .4-1 1s.5 1 1 1zM16 22.2h9.6c.6 0 1-.4 1-1s-.4-1-1-1H16c-.6 0-1 .4-1 1 0 .5.5 1 1 1zM16 27.3h7.5c.6 0 1-.4 1-1s-.4-1-1-1H16c-.6 0-1 .4-1 1s.5 1 1 1zM45.1 32.8c-4 0-7.2 3.2-7.2 7.2s3.2 7.2 7.2 7.2 7.2-3.2 7.2-7.2-3.2-7.2-7.2-7.2zm0 12.4c-2.9 0-5.2-2.3-5.2-5.2s2.3-5.2 5.2-5.2 5.2 2.3 5.2 5.2-2.3 5.2-5.2 5.2zM5.1 56.3h2.2c.1.1.1.3.2.4l-1.6 1.6c-.4.4-.4 1 0 1.4l3.5 3.5c.4.4 1 .4 1.4 0l1.6-1.6c.1.1.3.1.4.2V64c0 .6.4 1 1 1h5c.6 0 1-.4 1-1v-2.2c.1-.1.3-.1.4-.2l1.6 1.6c.4.4 1 .4 1.4 0l3.5-3.5c.4-.4.4-1 0-1.4l-1.5-1.5c.1-.1.1-.3.2-.4h2.2c.6 0 1-.4 1-1v-5c0-.6-.4-1-1-1h-2.2c-.1-.1-.1-.3-.2-.4l1.5-1.5c.4-.4.4-1 0-1.4l-3.5-3.5c-.4-.4-1-.4-1.4 0l-1.5 1.5c-.1-.1-.3-.1-.4-.2v-2.2c0-.6-.4-1-1-1h-5c-.6 0-1 .4-1 1v2.2c-.1.1-.3.1-.4.2l-1.6-1.5c-.4-.4-1-.4-1.4 0L6 46.1c-.4.4-.4 1 0 1.4l1.6 1.6c-.1.1-.1.3-.2.4H5.1c-.6 0-1 .4-1 1v5c0 .3.4.8 1 .8zm1-5H8c.4 0 .8-.3 1-.7.1-.5.3-1 .6-1.4.2-.4.1-.9-.2-1.2L8 46.6l2.1-2.1 1.3 1.3c.3.3.8.4 1.2.2.5-.2.9-.4 1.4-.6.4-.1.7-.5.7-1v-1.9h3v1.9c0 .4.3.8.7 1 .5.1 1 .3 1.4.6.4.2.9.1 1.2-.2l1.3-1.3 2.1 2.1-1.2 1.4c-.3.3-.4.8-.2 1.2.3.5.4.9.6 1.4.1.4.5.7 1 .7h1.9v3h-1.9c-.4 0-.8.3-1 .7-.1.5-.3 1-.6 1.4-.2.4-.1.9.2 1.2l1.3 1.3-2.1 2.1-1.4-1.4c-.3-.3-.8-.4-1.2-.2-.5.3-.9.4-1.4.6-.4.1-.7.5-.7 1v2h-3v-1.9c0-.4-.3-.8-.7-1-.5-.2-1-.3-1.4-.6-.4-.2-.9-.1-1.2.2L10 61.1 8 59l1.4-1.4c.3-.3.4-.8.2-1.2-.3-.4-.5-.9-.6-1.4-.1-.4-.5-.7-1-.7H6.1z" fill="#000000" opacity="1" data-original="#000000" class=""></path><path d="M16.3 58.2c3 0 5.4-2.4 5.4-5.4s-2.4-5.4-5.4-5.4-5.4 2.4-5.4 5.4 2.4 5.4 5.4 5.4zm0-8.8c1.9 0 3.4 1.5 3.4 3.4s-1.5 3.4-3.4 3.4-3.4-1.5-3.4-3.4 1.5-3.4 3.4-3.4z" fill="#000000" opacity="1" data-original="#000000" class=""></path></g></svg>